# xmcd
#
# Track frame offsets:
#	150
#	23101
#	41171
#	59556
#	79392
#	100985
#	116988
#	137003
#	157718
#	179487
#	197621
#	209911
#	221279
#	236079
#
# Disc length: 3355 seconds
#
# Revision: 1
# Processed by: cddbd v1.5.2PL0 Copyright (c) Steve Scherf et al.
# Submitted via: audiograbber 1.83.01
#
DISCID=d10d190e
DTITLE=John Farnham - The Essential John Farnham Limited Edition 3.0 - CD3
DYEAR=2009
DGENRE=Alt. Rock
TTITLE0=Have A Little Faith (In Us)
TTITLE1=Don't You Know It's Magic
TTITLE2=Man Of The Hour
TTITLE3=Help
TTITLE4=Everything's Alright
TTITLE5=Burn For You
TTITLE6=Reasons
TTITLE7=Talent For Fame
TTITLE8=We're No Angels
TTITLE9=Love To Shine
TTITLE10=Friday Kind Of Monday
TTITLE11=Raindrops Keep Fallin' On My Head
TTITLE12=Sadie, The Cleaning Lady
TTITLE13=The Last Time
EXTD=
EXTT0=
EXTT1=
EXTT2=
EXTT3=
EXTT4=with Kate Cebrano, Jon Stevens, John Waters, Angry Anderson
EXTT5=
EXTT6=
EXTT7=
EXTT8=
EXTT9=
EXTT10=
EXTT11=
EXTT12=
EXTT13=
PLAYORDER=
